<?xml version="1.0" encoding="UTF-8" standalone="no"?>
<svg
   width="241.71622"
   height="503.9953"
   version="1.1"
   viewBox="0 0 241.71622 503.9953"
   id="svg527"
   sodipodi:docname="noun-map-of-portugal.svg"
   inkscape:version="1.2.1 (0f2f062aeb, 2022-09-21, custom)"
   inkscape:export-filename="noun-map-of-portugal-2.svg"
   inkscape:export-xdpi="96"
   inkscape:export-ydpi="96"
   xmlns:inkscape="http://www.inkscape.org/namespaces/inkscape"
   xmlns:sodipodi="http://sodipodi.sourceforge.net/DTD/sodipodi-0.dtd"
   xmlns="http://www.w3.org/2000/svg"
   xmlns:svg="http://www.w3.org/2000/svg">
  <defs
     id="defs531" />
  <sodipodi:namedview
     id="namedview529"
     pagecolor="#ffffff"
     bordercolor="#000000"
     borderopacity="0.25"
     inkscape:showpageshadow="2"
     inkscape:pageopacity="0.0"
     inkscape:pagecheckerboard="0"
     inkscape:deskcolor="#d1d1d1"
     inkscape:document-units="pt"
     showgrid="false"
     inkscape:zoom="0.84428571"
     inkscape:cx="-129.10322"
     inkscape:cy="429.35702"
     inkscape:window-width="1920"
     inkscape:window-height="966"
     inkscape:window-x="0"
     inkscape:window-y="0"
     inkscape:window-maximized="1"
     inkscape:current-layer="svg527" />
  <path
     d="m 92.788472,0 c -10.781,0.41797 -20.66,4.5273 -30.957,8.3477 -5.5039,3.3398 -16.316,17.457 -17.586,21.883 -1.6055,2.6875 5.1094,32.055 8.7539,47.812 4.3047,19.258 9.4297,30.41 6.4844,47.734 -3.7188,14.793 -7.5039,29.609 -11.266,44.406 l -1.0547,27.797 c -5.5469,17.941 -13.824,40.363 -16.449,52.84 -0.56641,2.7852 -13.91,14.762 -15.641,18.801 -3.6328,9.0078 -7.5351998,20.121 -8.1874998,26.828 -1.3867,11.426 -4.3945,22.508 -6.72660004,31.688 -1.33979996,6.0664 6.10550004,10.219 10.45299984,10.371 10.715,0.89062 20.719,-5.5586 22.773,-11.75 1.7773,-5.0469 4.7422,-14.098 5.7539,-14.102 3.4648,-0.0195 6.4648,9.4922 7.0508,14.184 0.46094,2.9727 -0.58203,2.7578 -3.082,4.6211 -6.6641,3.5273 -13.918,8.168 -18.07,12.238 -5.3125,5.5273 -5.0742,12.434 -1.1328,15.723 3.8867,3.582 27.34,0.33203 34.93,3.8906 -4.0391,6.4414 -2.9258,8.7969 -2.2695,16.371 -1.4141,5.7422 -3.1641,11.23 -3.9727,16.773 -0.69141,5.3477 -0.69141,11.02 2.1641,16.289 0.008,7.0898 -0.15625,34.215 -0.21875,47.086 -2.6992,3.3398 -5.5391,7.0391 -7.6172,11.184 -3.8398,6.7148 -4.2266,13.176 -2.1875,16.371 2.3438,3.8828 6.8281,6.0781 9.7266,6.0781 5.8984,0.0859 9.9062,-2.8281 13.613,-6.1602 8.4883,1.25 16.797,1.3438 24.637,2.0273 10.644998,1.3438 20.987998,4.4375 26.417998,10.777 l 3.3242,3.8867 c 13.723,-10.258 22.281,-18.695 36.469,-22.691 l 4.2148,-1.293 c -1.0391,-15.039 -4.2969,-28.48 -6.6484,-41.008 5.6914,-10.562 14.109,-23.297 18.883,-31.039 7.2734,-5.1016 14.527,-10.055 19.773,-15.316 3.0898,-4.4648 -0.67969,-7.7578 -2.5117,-8.9141 -2.8711,-1.4141 -8.043,-5.5586 -13.047,-11.102 -4.7148,-5.2227 -9.332,-11.797 -13.047,-18.477 2.5703,-7.457 3.3555,-15.961 4.1328,-22.691 4.832,-4.3281 10.926,-7.7344 15.965,-12.641 9.1562,-9.6914 6.1523,-18.52 2.918,-24.395 -14.641,-17.098 -31.672,-34.156 -39.793,-53.406 0.1875,-2.6445 17.41,-0.60938 25.367,0.16797 2.0469,0.16797 3.9375,0.28906 5.7539,0.16797 1.8164,-0.12891 4.1719,0.16797 6.5625,-3.0781 13.824,-30.66 13.027,-87.406 7.1328,-124.15 3.125,-7.7344 11.336,-28.055 11.992,-29.578 10.004,-2.2617 14.227,-5.9375 17.992,-7.9414 5.9453,-3.8984 11.172,-8.418 14.426,-13.453 5.4297,-9.2109 1.832,-15.352 -2.7539,-17.262 -5.1875,-2.8125 -13.297,-1.8555 -23.258,-0.33203 1.9414,-7.8516 5.6406,-20.398 5.3477,-22.691 -1.2969,-7.4844 -7.7383,-7.9531 -12.484,-9.0781 -12.668,-1.2773 -23.711,-0.21484 -34.441,3.9727 v -0.08594 c -8.1094,4.4648 -20.863,11.547 -23.664,11.832 -11.422,-1.4531 -26.105,-4.7344 -32.5,-4.6992 -5.9297,1.0156 -11.461,5.0117 -15.397998,7.457 -2.6758,-2.6719 -5.5508,-5.9766 -7.1328,-8.3516 4.8594,-5.4453 8.574198,-11.297 9.160198,-15.965 -0.12109,-5.4883 -5.285198,-7.9648 -9.078098,-7.9414 z m -37.602,482.51 -0.40625,-0.41406 c 0.67578,-3.0508 2.3438,-5.6797 3.5781,-8.5078 1.9883,-3.9961 4.4961,-6.8672 7.2109,-10.129 l 0.24609,-53.73 c -2.9766,-3.7891 -2.9219,-8.4141 -2.3516,-11.75 1.1758,-6.4453 2.793,-12.047 4.2148,-17.344 -0.25391,-3.0234 -0.48438,-6.0508 -0.73047,-9.0781 2.5156,-3.0781 3.1484,-7.3711 2.8359,-10.051 -0.44922,-3.3125 -2.7461,-6.043 -5.1055,-7.5352 -5.5352,-4.3281 -19.68,-3.8086 -29.984,-3.8906 4.4297,-3.7383 9.5156,-6.5234 14.262,-9.3984 2.7305,-1.7266 5.0469,-2.6133 6.9688,-6.4844 1.7109,-3.1836 1.5195,-5.6406 1.2148,-8.5078 -0.80469,-6.9531 -3.8398,-14.375 -7.293,-18.477 -2.2695,-2.7148 -5.5352,-5.2227 -9.7266,-5.5898 -4.1797,-0.375 -8.1641,2.1484 -10.129,4.8633 -1.9648,2.7148 -2.8828,5.6328 -3.8086,8.3477 -1.1562,3.9297 -3.1719,9.1133 -5.2656,10.293 -2.543,1.8828 -5.7383,2.8555 -8.9141,2.5117 -0.25,-0.0195 -0.19922,-0.12891 -0.40625,-0.16797 0.61719,-2.4609 1.6719,-6.3906 3,-11.832 1.6133,-6.6328 2.5898,-13.27 3.3242,-19.125 0.48047,-2.7188 4.832,-15.77 6.8867,-21.637 0.98438,-2.1562 4.4805,-5.2812 7.7812,-8.7539 4.3164,-3.7734 7.7305,-8.5703 8.7539,-12.238 5.3438,-18.855 11.457,-37.715 16.777,-54.133 l 1.0547,-28.039 c 3.7148,-14.668 7.4141,-29.359 11.184,-44.004 3.4766,-20.273 -2.5586,-33.793 -6.6445,-52.109 -3.5273,-15.219 -6.1094,-27.645 -8.5898,-41.574 -0.42578,-1.4062 0.35156,-2.0078 1.2969,-3.5625 3.0703,-4.5781 6.6602,-8.168 10.535,-12.316 2.0859,-1.3594 15.395,-5.6836 20.586,-6.4023 -1.6016,2.1836 -2.9297,4.5234 -4.1484,6.4062 -1.4727,2.1758 -2.4336,6.3984 -1.1328,9.6445 3.7383,6.9883 10.773,14.156 15.156,15.238 3.554698,0.80859 6.706998,-0.44922 8.914098,-1.7031 4.2734,-2.4141 7.0312,-4.8711 9.8047,-5.4297 2.4258,0.08594 7.8594,0.98047 13.695,2.0273 5.9844,1.2266 12.254,2.1133 17.746,2.5117 2.75,0.24609 5.3945,-0.94922 7.293,-1.8633 7.2383,-3.3164 13.957,-7.1172 21.152,-10.941 5.7188,-2.0391 12.055,-2.5703 17.508,-3.2422 4.1562,-0.29297 11.551,-0.08594 13.211,1.2148 -1.2266,4.2148 -2.5078,8.9727 -3.5664,12.805 -1.0078,3.9219 -1.9297,7.4102 -1.8633,10.941 0.0312,1.7617 -0.1875,4.5352 3.1602,6.7266 4.2422,0.92578 4.9219,0.54688 6.6445,0.16797 11.652,-2.1133 18.02,-1.1953 19.289,-0.64844 -0.10547,0.33203 -0.0312,0.58203 -0.64844,1.5391 -1.8281,2.832 -6.2578,7.0039 -11.266,10.293 -4.6797,3.3984 -10.539,5.7383 -15.234,6.5664 -4.207,0.91406 -5.8047,4.6953 -7.1328,7.293 -4.918,10.773 -8.6133,20.977 -12.48,30.473 5.2383,31.277 7.3984,82.684 -5.5078,118.56 -5.207,-0.24609 -11.086,-0.875 -15.723,-1.3008 -5.0117,-0.29297 -10.066,-0.41406 -14.75,0.97266 -6.8516,2.1719 -10.562,7.9453 -9.4805,12.074 3.9922,16.934 29.109,42.844 41.656,57.539 3.6562,5.625 2.4141,8.3164 -0.89062,11.344 -7.2812,6.0273 -13,9.5312 -18.883,15.316 0.17969,8.8516 -2.0312,16.504 -3.8906,24.473 -0.45703,1.7773 -1.2539,2.6133 -0.73047,5.7539 3.6914,8.7578 10.652,16.902 15.965,23.5 3.7578,4.1641 7.3945,6.4961 11.02,9.1562 -5.0117,3.2773 -9.8398,7.1055 -14.344,10.617 -8.5039,11.355 -16.227,25.016 -21.395,34.281 -1.457,2.25 -1.2344,3.6172 -1.2148,4.8633 1.7539,11.648 4.2266,23.855 5.8359,34.523 -11.574,4.4961 -19.074,9.918 -28.93,17.262 -8.2969,-6.75 -18.371,-11.066 -28.280998,-12.316 -8.9062,-0.88281 -17.355,-1.2344 -26.168,-2.1094 -4.7773,1.9531 -12.742,6.2383 -12.742,6.2383 z"
     id="path525" />
</svg>
