<?xml version="1.0" encoding="UTF-8" standalone="no"?>
<svg
   width="699.07965"
   height="699.09601"
   version="1.1"
   viewBox="0 0 699.07965 699.09601"
   id="svg158"
   sodipodi:docname="noun-world.svg"
   inkscape:version="1.2.1 (0f2f062aeb, 2022-09-21, custom)"
   xmlns:inkscape="http://www.inkscape.org/namespaces/inkscape"
   xmlns:sodipodi="http://sodipodi.sourceforge.net/DTD/sodipodi-0.dtd"
   xmlns="http://www.w3.org/2000/svg"
   xmlns:svg="http://www.w3.org/2000/svg">
  <sodipodi:namedview
     id="namedview160"
     pagecolor="#ffffff"
     bordercolor="#000000"
     borderopacity="0.25"
     inkscape:showpageshadow="2"
     inkscape:pageopacity="0.0"
     inkscape:pagecheckerboard="0"
     inkscape:deskcolor="#d1d1d1"
     inkscape:document-units="pt"
     showgrid="false"
     inkscape:zoom="0.29559418"
     inkscape:cx="1403.9518"
     inkscape:cy="844.06261"
     inkscape:window-width="1920"
     inkscape:window-height="966"
     inkscape:window-x="0"
     inkscape:window-y="0"
     inkscape:window-maximized="1"
     inkscape:current-layer="g156" />
  <defs
     id="defs78">
    <symbol
       id="t"
       overflow="visible">
      <path
         d="m 14.656,-0.875 c -0.76172,0.39844 -1.5547,0.69531 -2.375,0.89062 -0.8125,0.19531 -1.6641,0.29688 -2.5469,0.29688 -2.6562,0 -4.7617,-0.73828 -6.3125,-2.2188 -1.5547,-1.4883 -2.3281,-3.5039 -2.3281,-6.0469 0,-2.5508 0.77344,-4.5664 2.3281,-6.0469 1.5508,-1.4883 3.6562,-2.2344 6.3125,-2.2344 0.88281,0 1.7344,0.10156 2.5469,0.29688 0.82031,0.19922 1.6133,0.49609 2.375,0.89062 v 3.2969 c -0.76172,-0.51953 -1.5117,-0.89844 -2.25,-1.1406 -0.74219,-0.23828 -1.5234,-0.35938 -2.3438,-0.35938 -1.4688,0 -2.625,0.46875 -3.4688,1.4062 -0.83594,0.9375 -1.25,2.2344 -1.25,3.8906 0,1.6484 0.41406,2.9375 1.25,3.875 0.84375,0.9375 2,1.4062 3.4688,1.4062 0.82031,0 1.6016,-0.11719 2.3438,-0.35938 0.73828,-0.23828 1.4883,-0.61719 2.25,-1.1406 z"
         id="path18" />
    </symbol>
    <symbol
       id="b"
       overflow="visible">
      <path
         d="m 10.719,-8.7031 c -0.33594,-0.15625 -0.66797,-0.26953 -1,-0.34375 -0.32422,-0.082031 -0.65625,-0.125 -1,-0.125 -0.98047,0 -1.7344,0.32031 -2.2656,0.95312 -0.53125,0.625 -0.79688,1.5273 -0.79688,2.7031 V -3e-5 h -3.8125 v -11.969 h 3.8125 v 1.9688 c 0.48828,-0.78125 1.0508,-1.3477 1.6875,-1.7031 0.64453,-0.36328 1.4102,-0.54688 2.2969,-0.54688 0.13281,0 0.27344,0.0078 0.42188,0.01563 0.14453,0.01172 0.36328,0.03125 0.65625,0.0625 z"
         id="path21" />
    </symbol>
    <symbol
       id="a"
       overflow="visible">
      <path
         d="m 13.781,-6.0156 v 1.0938 H 4.8435 c 0.09375,0.89844 0.41406,1.5703 0.96875,2.0156 0.55078,0.44922 1.3281,0.67188 2.3281,0.67188 0.80078,0 1.625,-0.11719 2.4688,-0.35938 0.84375,-0.23828 1.7109,-0.59766 2.6094,-1.0781 v 2.9531 c -0.90625,0.33594 -1.8125,0.58984 -2.7188,0.76562 -0.9063,0.17578 -1.8125,0.26562 -2.7188,0.26562 -2.1562,0 -3.8398,-0.54688 -5.0469,-1.6406 -1.1992,-1.1016 -1.7969,-2.6484 -1.7969,-4.6406 0,-1.9453 0.58594,-3.4766 1.7656,-4.5938 1.1758,-1.125 2.8008,-1.6875 4.875,-1.6875 1.875,0 3.375,0.57031 4.5,1.7031 1.1328,1.125 1.7031,2.6367 1.7031,4.5312 z M 9.8435,-7.2812 c 0,-0.72656 -0.21484,-1.3125 -0.64062,-1.75 -0.41797,-0.44531 -0.96875,-0.67188 -1.6562,-0.67188 -0.74219,0 -1.3438,0.21094 -1.8125,0.625 -0.46094,0.41797 -0.74609,1.0156 -0.85938,1.7969 z"
         id="path24" />
    </symbol>
    <symbol
       id="k"
       overflow="visible">
      <path
         d="m 7.2031,-5.3906 c -0.80469,0 -1.4062,0.13672 -1.8125,0.40625 -0.39844,0.27344 -0.59375,0.67188 -0.59375,1.2031 0,0.48047 0.16016,0.85938 0.48438,1.1406 0.32031,0.27344 0.77344,0.40625 1.3594,0.40625 0.71875,0 1.3203,-0.25391 1.8125,-0.76562 0.48828,-0.51953 0.73438,-1.1719 0.73438,-1.9531 v -0.4375 z m 5.8438,-1.4375 V 0 H 9.1875 v -1.7656 c -0.51172,0.71875 -1.0898,1.2461 -1.7344,1.5781 -0.63672,0.33203 -1.418,0.5 -2.3438,0.5 -1.2422,0 -2.2461,-0.35938 -3.0156,-1.0781 -0.77344,-0.72656 -1.1562,-1.6719 -1.1562,-2.8281 0,-1.3945 0.47656,-2.4219 1.4375,-3.0781 0.96875,-0.65625 2.4883,-0.98438 4.5625,-0.98438 h 2.25 v -0.29688 c 0,-0.60156 -0.24219,-1.0469 -0.71875,-1.3281 -0.48047,-0.28125 -1.2266,-0.42188 -2.2344,-0.42188 -0.8125,0 -1.5742,0.085937 -2.2812,0.25 -0.71094,0.15625 -1.3672,0.40234 -1.9688,0.73438 v -2.9219 c 0.82031,-0.19531 1.6445,-0.34766 2.4688,-0.45312 0.82031,-0.10156 1.6484,-0.15625 2.4844,-0.15625 2.1562,0 3.7109,0.42969 4.6719,1.2812 0.95703,0.84375 1.4375,2.2266 1.4375,4.1406 z"
         id="path27" />
    </symbol>
    <symbol
       id="d"
       overflow="visible">
      <path
         d="m 6.0156,-15.359 v 3.3906 H 9.9531 V -9.234 H 6.0156 v 5.0781 c 0,0.55469 0.10938,0.92969 0.32812,1.125 0.21875,0.19922 0.65625,0.29688 1.3125,0.29688 h 1.9688 v 2.7344 h -3.2812 c -1.5117,0 -2.5859,-0.3125 -3.2188,-0.9375 -0.625,-0.63281 -0.9375,-1.707 -0.9375,-3.2188 v -5.0781 h -1.9062 v -2.7344 h 1.9062 v -3.3906 z"
         id="path30" />
    </symbol>
    <symbol
       id="j"
       overflow="visible">
      <path
         d="m 9.9688,-10.219 v -6.4062 h 3.8594 V -2e-4 H 9.9688 V -1.7346 C 9.44536,-1.02366 8.8672,-0.5041 8.2344,-0.1721 7.59768,0.14821 6.8633,0.31228 6.0313,0.31228 c -1.4688,0 -2.6797,-0.58203 -3.625,-1.75 -0.94922,-1.1758 -1.4219,-2.6875 -1.4219,-4.5312 0,-1.8437 0.47266,-3.3477 1.4219,-4.5156 0.94531,-1.1758 2.1562,-1.7656 3.625,-1.7656 0.83203,0 1.5664,0.16797 2.2031,0.5 0.63281,0.32422 1.2109,0.83594 1.7344,1.5312 z m -2.5156,7.75 c 0.82031,0 1.4453,-0.29688 1.875,-0.89062 0.42578,-0.60156 0.64062,-1.4727 0.64062,-2.6094 0,-1.1445 -0.21484,-2.0156 -0.64062,-2.6094 -0.42969,-0.59375 -1.0547,-0.89062 -1.875,-0.89062 -0.8125,0 -1.4336,0.29688 -1.8594,0.89062 -0.42969,0.59375 -0.64062,1.4648 -0.64062,2.6094 0,1.1367 0.21094,2.0078 0.64062,2.6094 0.42578,0.59375 1.0469,0.89062 1.8594,0.89062 z"
         id="path33" />
    </symbol>
    <symbol
       id="i"
       overflow="visible">
      <path
         d="m 8.2031,-2.4688 c 0.82031,0 1.4453,-0.29688 1.875,-0.89062 0.42578,-0.60156 0.64062,-1.4727 0.64062,-2.6094 0,-1.1445 -0.21484,-2.0156 -0.64062,-2.6094 -0.42969,-0.59375 -1.0547,-0.89062 -1.875,-0.89062 -0.82422,0 -1.4531,0.30469 -1.8906,0.90625 -0.4375,0.59375 -0.65625,1.4609 -0.65625,2.5938 0,1.1367 0.21875,2.0078 0.65625,2.6094 0.4375,0.59375 1.0664,0.89062 1.8906,0.89062 z m -2.5469,-7.75 c 0.53125,-0.69531 1.1133,-1.207 1.75,-1.5312 0.64453,-0.33203 1.3828,-0.5 2.2188,-0.5 1.4688,0 2.6758,0.58984 3.625,1.7656 0.94531,1.168 1.4219,2.6719 1.4219,4.5156 0,1.8437 -0.47656,3.3555 -1.4219,4.5312 -0.94922,1.168 -2.1562,1.75 -3.625,1.75 -0.83594,0 -1.5742,-0.16797 -2.2188,-0.5 -0.63672,-0.33203 -1.2188,-0.84766 -1.75,-1.5469 V -1e-4 H 1.8437 v -16.625 h 3.8125 z"
         id="path36" />
    </symbol>
    <symbol
       id="h"
       overflow="visible">
      <path
         d="m 0.26562,-11.969 h 3.8281 l 3.2188,8.125 2.7344,-8.125 h 3.8125 L 8.82822,1.125 c -0.5,1.332 -1.0898,2.2656 -1.7656,2.7969 -0.66797,0.53125 -1.5547,0.79688 -2.6562,0.79688 h -2.2188 v -2.5 h 1.2031 c 0.64453,0 1.1133,-0.10547 1.4062,-0.3125 C 5.0977,1.69534 5.32817,1.32816 5.48442,0.79688 L 5.5938,0.45313 Z"
         id="path39" />
    </symbol>
    <symbol
       id="g"
       overflow="visible">
      <path
         d="M 1.8438,-11.969 H 5.6563 V 0 H 1.8438 Z m 0,-4.6562 h 3.8125 v 3.125 H 1.8438 Z"
         id="path42" />
    </symbol>
    <symbol
       id="s"
       overflow="visible">
      <path
         d="m 0.32812,-11.969 h 3.8281 l 2.9844,8.2656 2.9688,-8.2656 h 3.8281 L 9.23442,0 h -4.2031 z"
         id="path45" />
    </symbol>
    <symbol
       id="f"
       overflow="visible">
      <path
         d="m 11.5,-11.594 v 3.125 C 10.97656,-8.82056 10.457,-9.08228 9.9375,-9.25025 9.41406,-9.42603 8.875,-9.51587 8.3125,-9.51587 c -1.0742,0 -1.9062,0.3125 -2.5,0.9375 -0.5938,0.625 -0.89062,1.4961 -0.89062,2.6094 0,1.1172 0.29688,1.9844 0.89062,2.6094 0.59374,0.625 1.4258,0.9375 2.5,0.9375 0.59375,0 1.1562,-0.085937 1.6875,-0.26562 0.53906,-0.17578 1.0391,-0.44141 1.5,-0.79688 v 3.125 c -0.59375,0.23047 -1.1992,0.39453 -1.8125,0.5 -0.61719,0.11328 -1.2344,0.17188 -1.8594,0.17188 -2.1562,0 -3.8438,-0.55078 -5.0625,-1.6562 -1.2188,-1.1133 -1.8281,-2.6562 -1.8281,-4.625 0,-1.9688 0.60938,-3.5039 1.8281,-4.6094 1.2188,-1.1133 2.9062,-1.6719 5.0625,-1.6719 0.625,0 1.2383,0.05859 1.8438,0.17188 0.61328,0.10547 1.2227,0.26562 1.8281,0.48438 z"
         id="path48" />
    </symbol>
    <symbol
       id="c"
       overflow="visible">
      <path
         d="m 7.5312,-9.5156 c -0.84375,0 -1.4922,0.30859 -1.9375,0.92188 -0.44922,0.60547 -0.67188,1.4805 -0.67188,2.625 0,1.1484 0.22266,2.0273 0.67188,2.6406 0.44531,0.60547 1.0938,0.90625 1.9375,0.90625 0.83203,0 1.4688,-0.30078 1.9062,-0.90625 0.44531,-0.61328 0.67188,-1.4922 0.67188,-2.6406 0,-1.1445 -0.22656,-2.0195 -0.67188,-2.625 C 8.9999,-9.207 8.3632,-9.5156 7.5312,-9.5156 Z m 0,-2.7344 c 2.0508,0 3.6562,0.55859 4.8125,1.6719 1.1641,1.1055 1.75,2.6406 1.75,4.6094 0,1.9688 -0.58594,3.5117 -1.75,4.625 -1.1562,1.1055 -2.7617,1.6562 -4.8125,1.6562 -2.0625,0 -3.6797,-0.55078 -4.8438,-1.6562 -1.168,-1.1133 -1.75,-2.6562 -1.75,-4.625 0,-1.9688 0.58203,-3.5039 1.75,-4.6094 1.1641,-1.1133 2.7812,-1.6719 4.8438,-1.6719 z"
         id="path51" />
    </symbol>
    <symbol
       id="e"
       overflow="visible">
      <path
         d="M 13.859,-7.2812 V 0 h -3.8438 v -5.5781 c 0,-1.0312 -0.027344,-1.7383 -0.078125,-2.125 -0.042969,-0.39453 -0.12109,-0.6875 -0.23438,-0.875 -0.14844,-0.25 -0.35156,-0.44141 -0.60938,-0.57812 -0.25,-0.14453 -0.54297,-0.21875 -0.875,-0.21875 -0.79297,0 -1.418,0.3125 -1.875,0.9375 -0.46094,0.61719 -0.6875,1.4648 -0.6875,2.5469 V 3e-5 h -3.8125 v -11.969 h 3.8125 v 1.75 c 0.58203,-0.69531 1.1953,-1.207 1.8438,-1.5312 0.64453,-0.33203 1.3594,-0.5 2.1406,-0.5 1.3828,0 2.4297,0.42969 3.1406,1.2812 0.71875,0.84375 1.0781,2.0742 1.0781,3.6875 z"
         id="path54" />
    </symbol>
    <symbol
       id="r"
       overflow="visible">
      <path
         d="m 9.7031,-16.625 v 2.5156 H 7.5937 c -0.54297,0 -0.92188,0.10156 -1.1406,0.29688 -0.21094,0.19922 -0.3125,0.53906 -0.3125,1.0156 v 0.82812 h 3.2656 v 2.7344 H 6.1406 V 0 H 2.3125 V -9.2344 H 0.4219 v -2.7344 h 1.8906 v -0.82812 c 0,-1.3008 0.36328,-2.2656 1.0938,-2.8906 0.72656,-0.625 1.8516,-0.9375 3.375,-0.9375 z"
         id="path57" />
    </symbol>
    <symbol
       id="q"
       overflow="visible">
      <path
         d="m 12.922,-9.9688 c 0.48828,-0.75 1.0625,-1.3164 1.7188,-1.7031 0.66406,-0.38281 1.3984,-0.57812 2.2031,-0.57812 1.375,0 2.4219,0.42969 3.1406,1.2812 0.71875,0.84375 1.0781,2.0742 1.0781,3.6875 v 7.2812 h -3.8438 v -6.2344 c 0.0078,-0.09375 0.01563,-0.1875 0.01563,-0.28125 v -0.4375 c 0,-0.84375 -0.125,-1.457 -0.375,-1.8438 -0.25,-0.38281 -0.65234,-0.57812 -1.2031,-0.57812 -0.73047,0 -1.293,0.30469 -1.6875,0.90625 -0.38672,0.59375 -0.58984,1.4609 -0.60938,2.5938 v 5.875 h -3.8438 v -6.2344 c 0,-1.3203 -0.11719,-2.1758 -0.34375,-2.5625 -0.23047,-0.38281 -0.63672,-0.57812 -1.2188,-0.57812 -0.73047,0 -1.2969,0.30469 -1.7031,0.90625 -0.39844,0.60547 -0.59375,1.4648 -0.59375,2.5781 v 5.8906 h -3.8438 v -11.969 h 3.8438 v 1.75 c 0.46875,-0.66406 1.0039,-1.1719 1.6094,-1.5156 0.61328,-0.34375 1.2891,-0.51562 2.0312,-0.51562 0.82031,0 1.5508,0.19922 2.1875,0.59375 0.63281,0.39844 1.1133,0.96094 1.4375,1.6875 z"
         id="path60" />
    </symbol>
    <symbol
       id="p"
       overflow="visible">
      <path
         d="M 13.859,-7.2812 V 0 h -3.8438 v -5.5469 c 0,-1.0508 -0.027344,-1.7695 -0.078125,-2.1562 -0.042969,-0.39453 -0.12109,-0.6875 -0.23438,-0.875 -0.14844,-0.25 -0.35156,-0.44141 -0.60938,-0.57812 -0.25,-0.14453 -0.54297,-0.21875 -0.875,-0.21875 -0.79297,0 -1.418,0.3125 -1.875,0.9375 -0.46094,0.61719 -0.6875,1.4648 -0.6875,2.5469 V 3e-5 h -3.8125 v -16.625 h 3.8125 v 6.4062 c 0.58203,-0.69531 1.1953,-1.207 1.8438,-1.5312 0.64453,-0.33203 1.3594,-0.5 2.1406,-0.5 1.3828,0 2.4297,0.42969 3.1406,1.2812 0.71875,0.84375 1.0781,2.0742 1.0781,3.6875 z"
         id="path63" />
    </symbol>
    <symbol
       id="o"
       overflow="visible">
      <path
         d="m 2.0156,-15.953 h 4.5781 l 5.8125,10.938 v -10.938 h 3.8906 V 0 H 11.703 L 5.9061,-10.938 V 0 H 2.0155 Z"
         id="path66" />
    </symbol>
    <symbol
       id="n"
       overflow="visible">
      <path
         d="m 1.7031,-4.6562 v -7.3125 h 3.8438 v 1.2031 c 0,0.64844 -0.00781,1.4609 -0.015625,2.4375 v 1.9688 c 0,0.96094 0.023438,1.6523 0.078125,2.0781 0.050781,0.41797 0.13281,0.72656 0.25,0.92188 0.15625,0.25 0.35938,0.44531 0.60938,0.57812 0.25781,0.13672 0.55078,0.20312 0.875,0.20312 0.80078,0 1.4258,-0.30469 1.875,-0.92188 0.45703,-0.61328 0.6875,-1.4688 0.6875,-2.5625 v -5.9062 h 3.8281 v 11.969 h -3.8281 v -1.7344 c -0.57422,0.69922 -1.1836,1.2148 -1.8281,1.5469 -0.64844,0.33203 -1.3555,0.5 -2.125,0.5 -1.3867,0 -2.4453,-0.42188 -3.1719,-1.2656 -0.71875,-0.85156 -1.0781,-2.0859 -1.0781,-3.7031 z"
         id="path69" />
    </symbol>
    <symbol
       id="m"
       overflow="visible">
      <path
         d="m 2.0156,-15.953 h 6.8125 c 2.0312,0 3.5859,0.45312 4.6719,1.3594 1.0938,0.89844 1.6406,2.1797 1.6406,3.8438 0,1.6797 -0.54688,2.9688 -1.6406,3.875 -1.0859,0.89844 -2.6406,1.3438 -4.6719,1.3438 H 6.125 V 2e-4 H 2.0156 Z m 4.1094,2.9844 v 4.4531 h 2.2656 c 0.80078,0 1.4141,-0.19141 1.8438,-0.57812 0.4375,-0.38281 0.65625,-0.9375 0.65625,-1.6562 0,-0.70703 -0.21875,-1.2539 -0.65625,-1.6406 -0.42969,-0.38281 -1.043,-0.57812 -1.8438,-0.57812 z"
         id="path72" />
    </symbol>
    <symbol
       id="l"
       overflow="visible">
      <path
         d="m 1.8438,-11.969 h 3.8125 v 11.75 c 0,1.6016 -0.38672,2.8281 -1.1562,3.6719 C 3.73838,4.29665 2.629,4.7185 1.172,4.7185 h -1.8906 v -2.5 h 0.65625 c 0.72656,0 1.2266,-0.16797 1.5,-0.5 C 1.70718,1.39428 1.8439,0.74975 1.8439,-0.219 Z m 0,-4.6562 h 3.8125 v 3.125 H 1.8438 Z"
         id="path75" />
    </symbol>
  </defs>
  <g
     id="g156"
     transform="translate(-1.7735728,-3.4451929)">
    <path
       d="m 1.7768671,352.99928 c 0.029961,60.16594 15.5841339,119.3092 45.1608799,171.70543 29.576745,52.39623 72.175843,96.27367 123.673413,127.39336 l 0.23469,0.21972 v -0.004 c 0.57925,0.48936 1.25337,0.84889 1.98243,1.05862 71.0522,42.29997 154.8059,58.02472 236.35064,44.37725 81.55879,-13.64745 155.62402,-55.78253 209.03269,-118.91035 53.40995,-63.12271 82.69267,-143.14752 82.64154,-225.84274 0,-7.27051 -0.29461,-14.44131 -0.73404,-21.59229 v -0.39949 c 0,-0.0399 -0.035,-0.0649 -0.045,-0.0998 C 696.0144,267.97603 675.03164,207.31028 639.34318,155.31288 603.65989,103.32521 554.59369,61.934129 497.33343,35.523809 496.91398,35.264155 496.45457,35.059416 495.98018,34.914607 414.24625,-2.4062677 321.24512,-6.7014601 236.42784,22.935239 c -0.44441,0.09488 -0.87385,0.239687 -1.28331,0.439427 C 156.91706,51.152799 91.063835,105.74265 49.236843,177.46469 c -0.499342,0.55927 -0.878853,1.21342 -1.11854,1.92747 C 17.708086,232.19362 1.7238341,292.06553 1.7736891,352.98951 Z m 12.7533979,32.16281 c 30.685057,62.11922 73.054063,73.07963 75.096836,73.57435 0.284633,0.0649 0.579237,0.10987 0.873854,0.13981 54.564285,4.29443 49.669555,81.56392 49.445855,84.74952 -3.45049,38.45988 4.28444,65.57967 12.86255,83.14649 C 113.94044,598.61446 81.507896,562.50673 57.6683,520.85104 33.829983,479.19022 19.124062,432.94021 14.52974,385.16897 Z M 688.64536,327.72668 c -13.02747,3.62023 -24.84308,10.66614 -34.22092,20.40344 -9.37771,9.7373 -15.96891,21.81088 -19.09571,34.96491 -1.2184,7.02584 -4.26439,13.61167 -8.83352,19.0906 -4.44426,-15.90883 -6.46158,-32.40314 -5.98221,-48.91661 0.0699,-1.51304 -0.47937,-2.99105 -1.51802,-4.09463 -0.16977,-0.17976 -16.80749,-18.13695 -16.80749,-39.5081 h 0.004 c 0,-2.26201 -1.3632,-4.29941 -3.45546,-5.16331 -2.08726,-0.86888 -4.49411,-0.38948 -6.09201,1.20842 -0.15979,0.15979 -18.66107,14.64584 -70.27369,-23.11479 -1.74275,-1.25336 -4.04976,-1.40322 -5.93721,-0.3795 -1.88758,1.02366 -3.02108,3.03603 -2.92124,5.17825 0.06,1.11855 1.67781,28.13352 18.37089,41.28627 6.43154,5.0434 14.50138,7.52516 22.65075,6.97086 -0.39449,6.43154 -2.94617,12.53865 -7.2356,17.34696 -7.82978,8.5638 -21.49131,12.58863 -40.65733,11.91942 -2.92123,-11.24535 -12.64346,-41.38597 -35.87764,-55.82216 -3.29566,-2.06233 -7.15572,-3.03105 -11.03058,-2.77143 -3.88,0.25966 -7.57514,1.73776 -10.56618,4.21952 -3.11593,2.46181 -5.37295,5.84734 -6.44662,9.66738 -1.0786,3.82003 -0.9188,7.88475 0.4544,11.61479 9.87218,27.18498 31.84835,70.61755 72.39573,74.94215 l -54.33418,64.20162 c -0.56927,0.67412 -0.97373,1.47302 -1.17847,2.33193 l -10.82083,46.00458 -23.81402,18.52046 v 0.004 c -0.96374,0.74903 -1.65787,1.79758 -1.97246,2.97607 l -5.20818,19.52396 -37.83604,33.76584 c -4.87364,2.82625 -10.83091,3.03602 -15.88966,0.55927 -7.27051,-3.9549 -19.48432,-18.71605 -20.2935,-73.06941 0.83389,-4.55404 3.83498,-28.01846 -15.51511,-58.53861 v -30.75921 c 0,-2.59654 -1.78762,-4.85368 -4.31936,-5.44786 l -23.53407,-5.50283 c -18.30058,-8.08941 -39.24859,-7.64007 -57.18485,1.2284 -12.77335,-12.86256 -61.06971,-67.11237 -25.87087,-121.0669 1.78263,-2.62159 43.82758,-63.41672 106.49137,-39.75354 3.92485,11.65481 12.39878,21.22285 23.48932,26.52537 10.69108,4.24943 22.9307,2.61662 36.35319,-4.83362 v 0.004 c 11.03558,4.26937 22.73001,6.58136 34.56479,6.82105 7.10573,-0.0499 13.79703,-3.37556 18.13185,-9.00329 4.3393,-5.63258 5.84235,-12.94821 4.07966,-19.83457 -1.76767,-6.886 -6.60142,-12.57852 -13.11312,-15.42946 l -23.10455,-24.7421 c -1.45308,-1.55803 -3.66524,-2.15718 -5.70749,-1.53796 -2.0374,0.6142 -3.55031,2.33193 -3.89994,4.43427 l -1.74773,10.84088 C 381.95041,218.12903 363.1349,195.33767 348.64374,203.23264 h 0.004 c -1.42815,0.77399 -2.45185,2.12727 -2.79636,3.71508 l -3.47553,16.15427 c -6.79113,-9.00327 -15.86408,-16.01875 -26.28504,-20.3229 -2.62659,-1.16349 -4.39924,-3.68019 -4.614,-6.54647 -0.28463,-2.81129 1.00868,-5.54768 3.35562,-7.1157 13.4621,-9.07321 21.94638,-18.65084 25.28667,-28.52211 10.62612,0.68411 34.62998,0.97872 45.86011,-9.04816 v -0.004 c 3.25579,-2.83124 5.39802,-6.73617 6.03719,-11.01066 l 12.30393,-10.0069 v 0.004 c 3.29068,-2.69652 5.35301,-6.60144 5.72757,-10.8359 0.39947,-4.47416 -0.99871,-8.92838 -3.88498,-12.36888 -4.92362,-5.96226 -5.56279,-14.37611 -1.59791,-21.008091 3.47041,-6.621371 10.70602,-10.366498 18.1165,-9.382694 23.17487,4.678948 47.13335,-2.781393 63.55223,-19.788565 l 9.50759,-10.026973 c 54.04911,25.592188 100.36944,65.035093 134.25032,114.316033 33.88089,49.28606 54.11431,106.65627 58.65367,166.29809 z M 484.99444,42.198656 478.1234,49.409209 c -13.85198,14.286628 -34.04067,20.503152 -53.53011,16.487914 -5.89233,-0.903818 -11.92439,0.04993 -17.25234,2.726425 -5.32809,2.67657 -9.68733,6.945939 -12.48368,12.209083 -3.03602,5.218148 -4.39925,11.245351 -3.90492,17.262585 0.49436,6.017104 2.82129,11.739674 6.66624,16.388204 0.97872,1.14851 1.45806,2.63157 1.33829,4.12965 -0.10987,1.26335 -0.73404,2.4218 -1.7228,3.21078 l -14.19587,11.51495 c -1.30326,1.05862 -2.06233,2.65152 -2.06233,4.33431 0.06,2.12229 -0.86887,4.15457 -2.51167,5.50284 -7.59508,6.80609 -29.80045,7.21056 -42.03024,5.85731 -2.96612,-0.31958 -5.66762,1.73776 -6.15197,4.68393 -1.3333,8.38904 -8.84848,17.42237 -21.74697,26.11119 l 0.004,0.004 c -3.75012,2.56164 -6.46159,6.38168 -7.64506,10.76597 -1.18345,4.3843 -0.769,9.04816 1.17847,13.15276 1.94741,4.10458 5.29306,7.3803 9.43766,9.23797 24.40845,10.85584 27.10956,27.62858 27.20927,28.28309 h -0.004 c 0.33956,2.70149 2.57661,4.76881 5.29805,4.89357 2.71148,0.08 5.09836,-1.76269 5.71758,-4.40423 l 6.29681,-28.96187 c 7.12069,1.08359 22.90002,18.77996 35.56317,40.46173 1.18846,2.03741 3.52041,3.10596 5.83737,2.68155 2.31698,-0.42439 4.11967,-2.25203 4.50907,-4.57898 l 2.36695,-14.18692 16.21947,17.37253 c 0.59921,0.63917 1.33828,1.12853 2.16216,1.42815 5.5578,1.87761 8.82841,7.61002 7.62,13.34706 -0.82392,5.7126 -5.79748,9.90706 -11.56991,9.75225 -11.23538,-0.30461 -22.32094,-2.66148 -32.71249,-6.95591 -1.66285,-0.74403 -3.59033,-0.62918 -5.15321,0.31459 -11.24535,6.74614 -20.96207,8.59383 -28.88773,5.46282 -12.86257,-5.06833 -17.7867,-21.76614 -17.83143,-21.91698 v -0.004 c -0.4644,-1.65288 -1.66785,-3.00613 -3.26577,-3.65526 -72.45068,-29.58697 -121.8505,42.19004 -122.38485,42.99921 -44.70195,68.50576 29.76594,137.57399 30.52016,138.28986 1.82763,1.66285 4.52912,1.92746 6.64629,0.65913 15.53428,-9.00328 34.45998,-9.98197 50.83922,-2.61662 0.38951,0.19475 0.80397,0.34456 1.2334,0.44443 l 19.8039,4.62897 v 27.9686 c 0,1.08359 0.31959,2.14222 0.91381,3.05099 19.38971,29.74166 14.78005,51.86189 14.74043,52.05236 -0.10481,0.44444 -0.1548,0.89883 -0.14981,1.35325 0.6192,46.31905 9.46759,74.38352 26.28505,83.41622 3.72019,2.01234 7.88474,3.06095 12.11423,3.046 5.39302,-0.06 10.67611,-1.54793 15.31057,-4.3044 0.24467,-0.1598 0.47437,-0.33455 0.69409,-0.52432 l 39.47359,-35.23335 c 0.81394,-0.72906 1.39824,-1.67782 1.67781,-2.73141 l 5.1532,-19.32965 23.90863,-18.56137 c 1.00868,-0.78397 1.71782,-1.88758 2.01235,-3.13089 l 10.96566,-46.64374 61.16046,-72.26533 c 1.46306,-1.7278 1.73777,-4.16954 0.69908,-6.18188 -1.04364,-2.00737 -3.19583,-3.19584 -5.45284,-3.00114 -41.15077,3.58035 -63.61743,-40.89126 -73.35959,-67.72598 -1.16847,-3.16093 -0.1448,-6.71623 2.52177,-8.77358 2.43675,-2.08227 5.9372,-2.33691 8.64866,-0.63417 24.10294,14.99483 31.73841,52.39624 31.81384,52.7708 v 0.004 c 0.49934,2.47678 2.59653,4.30939 5.1183,4.47417 24.88272,1.62285 42.97877,-3.53534 53.76533,-15.32975 7.68992,-8.77855 11.2952,-20.40344 9.92202,-31.99278 -0.23468,-1.4931 -1.05863,-2.82627 -2.29703,-3.70013 -1.23338,-0.87386 -2.76643,-1.20843 -4.25443,-0.93379 -6.96587,1.78264 -14.36587,0.31958 -20.1337,-3.98481 -6.01212,-5.45284 -10.18677,-12.64346 -11.93437,-20.57346 34.19024,22.32605 54.43388,22.34139 64.8753,19.14941 2.60664,13.49277 8.64369,26.08561 17.53743,36.56282 -0.33955,19.69907 2.64652,39.31379 8.8284,58.01961 0.52433,1.46803 1.6378,2.64653 3.06595,3.25578 1.43315,0.6142 3.05099,0.5992 4.47416,-0.035 9.97699,-4.43428 16.90338,-14.75578 20.56835,-30.66461 5.22314,-21.96684 21.58206,-39.58353 43.10405,-46.41875 0.18475,4.58396 0.35452,9.17305 0.35452,13.80214 v 0.004 c 0.0399,80.19481 -28.41729,157.79718 -80.29453,218.95254 -51.88234,61.15535 -123.8038,101.88682 -202.93504,114.9194 -79.13126,13.03258 -160.3155,-2.47677 -229.06415,-43.76238 -4.76881,-4.76384 -32.01324,-34.97386 -26.28504,-98.57594 2.29703,-31.56328 -7.14063,-92.28017 -59.172669,-96.75432 -4.564026,-1.36323 -52.196814,-17.24213 -78.947169,-95.65497 0.09987,-57.87005 15.13544,-114.7302 43.652449,-165.08367 4.953532,0.45442 9.797257,0.73404 14.436192,0.73404 l -0.0049,-0.004 c 28.972097,0.41445 57.375327,-8.03955 81.404127,-24.22309 1.12852,-0.8589 1.88758,-2.11717 2.12727,-3.51541 2.89119,-22.02181 17.20761,-40.87209 37.64046,-49.56985 0.36452,-0.12981 0.71906,-0.29461 1.05362,-0.48936 34.3346,-20.442035 46.12976,-64.434521 48.89096,-77.148801 C 321.46658,5.6683308 408.03388,9.018837 484.9894,42.205077 Z M 229.45606,37.434827 c -4.47415,16.023879 -16.13893,47.303362 -41.44094,62.638223 -23.21449,9.85708 -39.80339,30.8653 -44.0027,55.72755 -24.24867,15.08559 -52.591821,22.26088 -81.094769,20.52362 C 101.7917,113.1018 160.28046,64.330912 229.45863,37.433549 Z"
       id="path80"
       style="stroke-width:1.27833" />
    <path
       d="m 258.10525,175.8226 c 1.06362,1.23338 2.61164,1.94242 4.23946,1.94242 h 0.24968 c 23.78845,-1.06861 37.62638,-7.02583 42.30508,-18.2111 6.28683,-15.02551 -7.98957,-31.4789 -9.64245,-33.31203 v 0.004 c -0.93879,-1.03865 -2.2321,-1.68778 -3.62522,-1.82764 -24.46343,-2.33691 -33.79652,41.66082 -34.77955,46.68466 -0.32958,1.68279 0.13482,3.42055 1.25336,4.71882 z m 30.42045,-40.16772 c 3.51042,4.59905 8.66861,13.37773 6.05213,19.57381 -2.33193,5.54769 -11.11048,9.29283 -24.99777,10.77095 3.48052,-12.37884 10.39143,-28.74199 18.94487,-30.3399 z"
       id="path82"
       style="stroke-width:1.27833" />
    <path
       d="m 469.32389,586.60149 c 0.31958,0 0.63917,-0.025 0.94877,-0.08 53.49048,-9.2229 62.94758,-70.34783 63.32724,-72.94412 v -0.004 c 0.24967,-1.70274 -0.3046,-3.43054 -1.49809,-4.67385 -1.18843,-1.25336 -2.89618,-1.87248 -4.60901,-1.67781 -45.67477,4.65889 -62.87343,69.63965 -63.58163,72.41107 -0.42944,1.67283 -0.0649,3.45048 0.99371,4.81867 1.05859,1.36321 2.69152,2.16218 4.41918,2.16716 z m 51.3774,-66.55246 c -3.91488,14.22143 -15.09964,43.19864 -42.94425,53.0405 5.62261,-15.4499 19.24527,-45.30532 42.96854,-53.06607 z"
       id="path84"
       style="stroke-width:1.27833" />
  </g>
</svg>
